<?xml version="1.0" encoding="UTF-8" standalone="no"?><!DOCTYPE svg PUBLIC "-//W3C//DTD SVG 1.1//EN" "http://www.w3.org/Graphics/SVG/1.1/DTD/svg11.dtd"><svg width="100%" height="100%" viewBox="0 0 1000 1000" version="1.1" xmlns="http://www.w3.org/2000/svg" xmlns:xlink="http://www.w3.org/1999/xlink" xml:space="preserve" xmlns:serif="http://www.serif.com/" style="fill-rule:evenodd;clip-rule:evenodd;stroke-linejoin:round;stroke-miterlimit:2;"><rect id="Artboard2" x="0" y="0" width="1000" height="1000" style="fill:none;"/><clipPath id="_clip1"><rect x="0" y="0" width="1000" height="1000"/></clipPath><g clip-path="url(#_clip1)"><rect id="Artboard1" x="-395.323" y="-381.789" width="1440" height="1440" style="fill:none;"/><g><path d="M198.609,856.613c0.971,6.093 3.838,12.686 11.618,15.913c16.262,6.745 35.816,-3.485 37.175,-15.913c7.554,-69.077 7.451,-42.9 4.575,-110.753c-0.516,-12.16 3.244,-34.067 -18.586,-38.023c-3.381,-0.612 -6.902,-0.841 -10.385,-0.841c-30.767,0 -28.318,21.74 -28.971,38.864c-1.739,45.562 -2.657,65.361 4.574,110.753Z" style="fill:#fff;fill-rule:nonzero;"/><path d="M278.865,877.684c1.003,7.654 3.768,15.855 11.976,20.111c16.162,8.379 37.705,-5.004 39.611,-20.111c0.916,-7.257 1.428,-14.548 1.75,-21.849c0.347,-7.865 0.473,-15.742 0.648,-23.607c0.152,-6.811 -0.415,-13.625 -0.931,-20.422c-0.302,-3.981 -1.151,-7.916 -1.52,-11.891c-2.805,-30.166 -14.706,-74.644 27.809,-88.152c6.568,-2.087 13.508,-3.797 20.482,-3.797c6.975,0 13.915,1.71 20.482,3.797c42.516,13.508 39.033,57.986 36.229,88.152c-0.37,3.975 -1.219,7.91 -1.521,11.891c-0.516,6.797 -1.083,13.611 -0.931,20.422c0.338,15.166 4.176,53.031 5.516,68.152c1.883,21.271 36.694,29.802 47.857,9.635c9.437,-17.047 5.209,-60.052 6.537,-78.328c1.734,-23.869 8.307,-55.933 2.16,-80.358c-4.143,-16.459 -12.122,-28.049 -22.07,-42.09c-16.563,-23.38 -41.487,-36.066 -74.02,-41.003c-26.654,-4.044 -44.994,1.117 -68.477,8.851c-0.793,0.261 -1.602,-1.063 -1.512,-1.81c0.177,-1.471 6.265,-10.691 1.512,-12.328c-7.525,-2.593 -15.322,-4.602 -23.199,-6.166c-20.237,-4.02 -32.045,2.591 -34.047,21.949c-1.092,10.553 0.359,21.194 0.254,31.791c-0.158,15.987 -1.116,31.967 -1.044,47.956c0.165,36.384 1.699,82.953 6.449,119.205Z" style="fill:#fff;fill-rule:nonzero;"/><path d="M522.323,905.42c0.606,5.067 2.549,10.37 8.181,13.88c14.172,8.833 38.124,-3.383 42.033,-13.88c7.462,-20.034 9.28,-55.737 7.722,-76.047c-0.572,-7.446 -1.086,-19.503 11.425,-23.015c8.316,-2.335 20.073,18.976 22.098,21.298c18.154,20.817 16.994,29.991 36.621,50.195c10.163,10.461 28.885,21.343 47.361,23.188c10.044,1.002 20.706,-0.856 22.329,-9.056c2.963,-14.97 -7.75,-29.926 -17.221,-42.607c-12.319,-16.495 -15.041,-22.253 -33.726,-32.382c-18.618,-10.092 -34,-18.846 -35.615,-38.386c-0.542,-6.549 36.504,-24.543 47.369,-30.198c40.688,-21.179 79.047,-46.459 124.776,-63.942c8.473,-3.24 24.376,-21.703 12.115,-29.256c-9.505,-5.855 -28.002,-4.197 -42.32,-4.046c-44.65,0.474 -82.342,6.896 -110.502,26.024c-22.785,15.478 -58.74,79.043 -72.023,90.478c-0.988,0.851 -10.192,6.641 -12.717,2.824c-3.575,-5.405 -4.254,-12.092 -3.795,-17.943c1.543,-19.694 4.155,-30.624 4.983,-50.341c0.235,-5.589 -7.103,-30.421 -16.468,-36.861c-16.377,-11.263 -44.848,-5.177 -50.96,9.578c-3.571,8.621 0.526,21.607 0.509,26.874c-0.199,60.509 0.604,143.191 7.825,203.621Z" style="fill:#fff;fill-rule:nonzero;"/><path d="M753.392,882.02c2.191,4.995 6.926,7.308 11.454,8.517c12.571,3.356 26.214,-0.861 37.991,-5.092c3.144,-1.129 11.705,-6.03 14.034,-9.403c4.841,-7.015 0.935,-17.364 0.199,-24.922c-1.212,-12.445 1.952,-11.977 4.695,-28.085c1.316,-7.728 -0.076,-13.445 -2.672,-20.757c-2.933,-8.257 -9.779,-11.197 -17.184,-12.996c-20.443,-4.966 -38.347,1.414 -52.314,18.341c-9.416,11.412 -4.406,32.771 -3.213,45.148c0.819,8.492 3.552,21.366 7.01,29.249Z" style="fill:#fff;fill-rule:nonzero;"/><path d="M195.728,684.457c7.562,12.352 36.16,15.319 48.196,5.405c5.502,-4.532 8.085,-13.441 9.458,-18.484c3.318,-12.18 7.29,-26.035 0.766,-38.041c-3.087,-5.68 -9.285,-8.212 -16.763,-9.083c-13.752,-1.601 -30.575,-2.28 -41.574,5.715c-5.615,4.081 -6.737,11.3 -6.816,15.262c-0.229,11.537 0.027,28.271 6.733,39.226Z" style="fill:#fff;fill-rule:nonzero;"/></g><g><path d="M366.844,177.145c18.267,-0.116 73.904,6.709 97.3,12.42c20.688,5.05 33.973,7.701 49.849,20.104c34.892,27.259 1.135,84.433 -21.37,104.694c-10.135,9.123 -21.462,17.718 -34.505,23.811c-67.364,31.47 -172.478,3.638 -233.207,-26.417c-23.907,-11.831 -38.257,-21.076 -49.405,-41.788c-14.206,-26.392 33.865,-28.595 50.671,-26.807c32.83,3.495 42.301,15.599 67.619,29.453c25.828,14.134 61.95,18.781 92.767,17.311c47.506,-2.265 51.692,-38.737 44.22,-52.186c-8.096,-14.572 -35.852,-14.873 -53.521,-17.495c-19.222,-2.853 -40.808,-0.467 -61.817,-3.438c-43.424,-6.142 -111.363,10.735 -126.628,-36.431c-2.872,-8.871 -2.59,-18.531 -0.478,-27.547c2.175,-9.282 6.84,-18.297 13.075,-26.221c39.876,-50.68 141.195,-52.019 204.969,-46.98c16.028,1.266 32.053,3.243 47.645,6.565c25.538,5.44 63.502,16.322 72.777,40.271c6.677,17.239 -5.82,26.772 -26.58,27.686c-60.258,2.653 -117.722,-15.92 -177.637,-15.51c-14.761,0.101 -37.002,-0.546 -47.494,11.298c-6.658,7.517 -5.768,24.137 9.068,25.789c17.892,1.991 64.63,1.532 82.682,1.418Z" style="fill:#fff;fill-rule:nonzero;"/><path d="M682.56,283.95c-147.032,0 -152.431,-99.431 -123.99,-152.581c10.153,-18.974 22.671,-53.188 72.699,-53.692c44.633,-0.45 96.167,9.422 133.291,26.194c20.782,9.389 37.048,20.939 45.061,34.051c14.769,24.168 12.352,56.652 11.154,79.369c-1.111,21.049 -5.982,48.677 -45.564,60.207c-25.753,7.502 -67.449,6.452 -92.651,6.452Zm-2.086,-32.55c9.758,2.151 21.177,1.135 31.725,0.677c10.392,-0.451 21.135,-1.098 30.612,-3.382c4.73,-1.14 7.158,-4.023 9.837,-6.366c11.014,-9.631 17.189,-24.973 19.091,-34.652c5.61,-28.561 -6.2,-43.254 -41.766,-63.499c-10.186,-5.798 -20.758,-11.719 -35.915,-13.78c-13.205,-1.795 -26.739,-3.205 -40.366,-3.523c-52.73,-1.23 -51.895,33.093 -51.859,52.346c0.049,25.781 6.045,47.818 48.711,63.425c9.37,3.427 19.4,6.433 29.93,8.754Z" style="fill:#fff;fill-rule:nonzero;"/><path d="M471.937,403.287c11.707,33.827 22.767,109.858 -0,175.645c-5.464,15.789 -47.865,4.784 -70.238,0c-6.899,-1.475 7.218,-14.964 -0,-15.019c-12.488,-0.097 -19.548,11.04 -30.811,14.781c-43.437,14.425 -97.551,7.223 -134.722,-12.708c-29.277,-15.698 -46.492,-38.011 -47.525,-63.775c-1.687,-42.066 -21.843,-86.985 -0,-126.245c8.428,-15.149 61.468,-15.055 70.239,0c16.669,28.611 -43.483,142.268 45.188,162.436c8.403,1.912 17.378,2.792 26.221,2.792c8.843,0 17.818,-0.88 26.221,-2.792c88.671,-20.168 27.94,-120.545 44.608,-149.156c8.771,-15.055 65.838,-0.355 70.819,14.041Z" style="fill:#fff;fill-rule:nonzero;"/><path d="M574.784,335.547c24.778,-18.626 95.653,-36.453 128.574,-27.001c23.186,6.657 25.084,5.931 44.044,13.661c81.426,33.203 97.212,125.023 62.035,168.584c-29.269,36.245 -51.219,58.472 -92.865,57.928c-48.048,-0.627 -114.912,-39.029 -141.788,-59.231c-0,0 34.682,68.292 38.463,97.65c2.141,16.62 -102.548,13.03 -106.453,-2.523c-11.331,-45.13 -0.669,-197.711 10.662,-242.841c3.905,-15.552 45.996,-31.555 57.328,-27.937c9.442,3.015 -0,21.71 -0,21.71Zm103.239,22.972c-13.852,0 -28.197,1.745 -40.668,5.439c-49.347,14.617 -58.537,57.061 -24.998,81.68c16.208,11.898 47.38,32.541 72.572,32.541c25.36,0 66.054,-10.341 78.36,-26.348c34.219,-44.51 5.699,-73.336 -44.178,-87.897c-12.609,-3.681 -27.124,-5.415 -41.088,-5.415Z" style="fill:#fff;fill-rule:nonzero;"/></g></g></svg>